HIERARCHY
ROOT mixamorig:Hips
{
	OFFSET 0.000000 201.639420 0.000000
	CHANNELS 6 Xposition Yposition Zposition Xrotation Yrotation Zrotation
	JOINT mixamorig:Spine
	{
		OFFSET 0.006200 19.524994 -2.481800
		CHANNELS 3 Xrotation Yrotation Zrotation
		JOINT mixamorig:Spine1
		{
			OFFSET -0.000900 22.835007 -2.825400
			CHANNELS 3 Xrotation Yrotation Zrotation
			JOINT mixamorig:Spine2
			{
				OFFSET -0.020600 26.552490 -3.193300
				CHANNELS 3 Xrotation Yrotation Zrotation
				JOINT mixamorig:Neck
				{
					OFFSET -0.060000 30.701813 1.352200
					CHANNELS 3 Xrotation Yrotation Zrotation
					JOINT mixamorig:Head
					{
						OFFSET -0.087200 22.547607 3.670900
						CHANNELS 3 Xrotation Yrotation Zrotation
						JOINT mixamorig:HeadTop_End
						{
							OFFSET -0.830600 40.355194 7.893500
							CHANNELS 3 Xrotation Yrotation Zrotation
							End Site
							{
								OFFSET 0.000000 30.592346 0.000000
							}
						}
						JOINT mixamorig:RightEye
						{
							OFFSET -6.302100 18.118591 16.197100
							CHANNELS 3 Xrotation Yrotation Zrotation
							End Site
							{
								OFFSET 0.000000 30.592346 0.000000
							}
						}
						JOINT mixamorig:LeftEye
						{
							OFFSET 6.741500 18.382690 16.401899
							CHANNELS 3 Xrotation Yrotation Zrotation
							End Site
							{
								OFFSET 0.000000 30.592346 0.000000
							}
						}
					}
				}
				JOINT mixamorig:LeftShoulder
				{
					OFFSET 11.924900 18.230499 1.425400
					CHANNELS 3 Xrotation Yrotation Zrotation
					JOINT mixamorig:LeftArm
					{
						OFFSET 25.435989 -0.697632 -5.229300
						CHANNELS 3 Xrotation Yrotation Zrotation
						JOINT mixamorig:LeftForeArm
						{
							OFFSET 54.684776 0.000000 0.000000
							CHANNELS 3 Xrotation Yrotation Zrotation
							JOINT mixamorig:LeftHand
							{
								OFFSET 55.098175 0.000000 0.000000
								CHANNELS 3 Xrotation Yrotation Zrotation
								JOINT mixamorig:LeftHandMiddle1
								{
									OFFSET 23.369751 0.000000 0.000000
									CHANNELS 3 Xrotation Yrotation Zrotation
									JOINT mixamorig:LeftHandMiddle2
									{
										OFFSET 6.378677 0.000000 0.000000
										CHANNELS 3 Xrotation Yrotation Zrotation
										JOINT mixamorig:LeftHandMiddle3
										{
											OFFSET 6.148331 0.000000 0.000000
											CHANNELS 3 Xrotation Yrotation Zrotation
											JOINT mixamorig:LeftHandMiddle4
											{
												OFFSET 6.582504 0.000000 0.000000
												CHANNELS 3 Xrotation Yrotation Zrotation
												End Site
												{
													OFFSET -1.168900 6.395691 1.028606
												}
											}
										}
									}
								}
								JOINT mixamorig:LeftHandThumb1
								{
									OFFSET 7.235672 -3.848206 5.434273
									CHANNELS 3 Xrotation Yrotation Zrotation
									JOINT mixamorig:LeftHandThumb2
									{
										OFFSET 6.568451 -3.792297 3.792300
										CHANNELS 3 Xrotation Yrotation Zrotation
										JOINT mixamorig:LeftHandThumb3
										{
											OFFSET 6.063080 -3.500519 3.500518
											CHANNELS 3 Xrotation Yrotation Zrotation
											JOINT mixamorig:LeftHandThumb4
											{
												OFFSET 4.793182 -2.767334 2.767349
												CHANNELS 3 Xrotation Yrotation Zrotation
												End Site
												{
													OFFSET 0.101639 6.054260 1.275483
												}
											}
										}
									}
								}
								JOINT mixamorig:LeftHandIndex1
								{
									OFFSET 23.101074 -0.309540 4.992809
									CHANNELS 3 Xrotation Yrotation Zrotation
									JOINT mixamorig:LeftHandIndex2
									{
										OFFSET 6.226883 0.000000 0.000000
										CHANNELS 3 Xrotation Yrotation Zrotation
										JOINT mixamorig:LeftHandIndex3
										{
											OFFSET 6.094330 0.000000 0.000000
											CHANNELS 3 Xrotation Yrotation Zrotation
											JOINT mixamorig:LeftHandIndex4
											{
												OFFSET 5.482605 0.000000 0.000000
												CHANNELS 3 Xrotation Yrotation Zrotation
												End Site
												{
													OFFSET -1.427902 5.233032 0.797164
												}
											}
										}
									}
								}
								JOINT mixamorig:LeftHandRing1
								{
									OFFSET 22.299240 0.021149 -3.964172
									CHANNELS 3 Xrotation Yrotation Zrotation
									JOINT mixamorig:LeftHandRing2
									{
										OFFSET 6.321869 0.000000 0.000000
										CHANNELS 3 Xrotation Yrotation Zrotation
										JOINT mixamorig:LeftHandRing3
										{
											OFFSET 5.899796 0.000000 0.000000
											CHANNELS 3 Xrotation Yrotation Zrotation
											JOINT mixamorig:LeftHandRing4
											{
												OFFSET 6.517899 0.000000 0.000000
												CHANNELS 3 Xrotation Yrotation Zrotation
												End Site
												{
													OFFSET -1.637299 6.232208 0.980890
												}
											}
										}
									}
								}
								JOINT mixamorig:LeftHandPinky1
								{
									OFFSET 20.463791 -0.302338 -8.562233
									CHANNELS 3 Xrotation Yrotation Zrotation
									JOINT mixamorig:LeftHandPinky2
									{
										OFFSET 6.908646 0.000000 0.000000
										CHANNELS 3 Xrotation Yrotation Zrotation
										JOINT mixamorig:LeftHandPinky3
										{
											OFFSET 4.622849 0.000000 0.000000
											CHANNELS 3 Xrotation Yrotation Zrotation
											JOINT mixamorig:LeftHandPinky4
											{
												OFFSET 5.216080 0.000000 0.000000
												CHANNELS 3 Xrotation Yrotation Zrotation
												End Site
												{
													OFFSET -0.606308 5.116241 0.814926
												}
											}
										}
									}
								}
							}
						}
					}
				}
				JOINT mixamorig:RightShoulder
				{
					OFFSET -12.001300 18.284088 1.348900
					CHANNELS 3 Xrotation Yrotation Zrotation
					JOINT mixamorig:RightArm
					{
						OFFSET -25.308500 -0.751312 -5.164599
						CHANNELS 3 Xrotation Yrotation Zrotation
						JOINT mixamorig:RightForeArm
						{
							OFFSET -54.684429 0.000000 0.000000
							CHANNELS 3 Xrotation Yrotation Zrotation
							JOINT mixamorig:RightHand
							{
								OFFSET -55.150291 0.000000 0.000000
								CHANNELS 3 Xrotation Yrotation Zrotation
								JOINT mixamorig:RightHandMiddle1
								{
									OFFSET -23.317566 0.000000 0.000000
									CHANNELS 3 Xrotation Yrotation Zrotation
									JOINT mixamorig:RightHandMiddle2
									{
										OFFSET -6.378403 0.000000 0.000000
										CHANNELS 3 Xrotation Yrotation Zrotation
										JOINT mixamorig:RightHandMiddle3
										{
											OFFSET -6.148193 0.000000 0.000000
											CHANNELS 3 Xrotation Yrotation Zrotation
											JOINT mixamorig:RightHandMiddle4
											{
												OFFSET -6.583389 0.000000 0.000000
												CHANNELS 3 Xrotation Yrotation Zrotation
												End Site
												{
													OFFSET 1.171692 6.395905 1.029786
												}
											}
										}
									}
								}
								JOINT mixamorig:RightHandThumb1
								{
									OFFSET -7.190521 -3.860474 5.435846
									CHANNELS 3 Xrotation Yrotation Zrotation
									JOINT mixamorig:RightHandThumb2
									{
										OFFSET -6.567429 -3.791718 3.791708
										CHANNELS 3 Xrotation Yrotation Zrotation
										JOINT mixamorig:RightHandThumb3
										{
											OFFSET -6.062469 -3.500153 3.500166
											CHANNELS 3 Xrotation Yrotation Zrotation
											JOINT mixamorig:RightHandThumb4
											{
												OFFSET -4.792618 -2.767029 2.767022
												CHANNELS 3 Xrotation Yrotation Zrotation
												End Site
												{
													OFFSET -0.100327 6.053253 1.276754
												}
											}
										}
									}
								}
								JOINT mixamorig:RightHandIndex1
								{
									OFFSET -23.048981 -0.310791 4.992554
									CHANNELS 3 Xrotation Yrotation Zrotation
									JOINT mixamorig:RightHandIndex2
									{
										OFFSET -6.227539 0.000000 0.000000
										CHANNELS 3 Xrotation Yrotation Zrotation
										JOINT mixamorig:RightHandIndex3
										{
											OFFSET -6.095047 0.000000 0.000000
											CHANNELS 3 Xrotation Yrotation Zrotation
											JOINT mixamorig:RightHandIndex4
											{
												OFFSET -5.484772 0.000000 0.000000
												CHANNELS 3 Xrotation Yrotation Zrotation
												End Site
												{
													OFFSET 1.420593 5.237305 0.797056
												}
											}
										}
									}
								}
								JOINT mixamorig:RightHandRing1
								{
									OFFSET -22.246323 0.020569 -3.963762
									CHANNELS 3 Xrotation Yrotation Zrotation
									JOINT mixamorig:RightHandRing2
									{
										OFFSET -6.322128 0.000000 0.000000
										CHANNELS 3 Xrotation Yrotation Zrotation
										JOINT mixamorig:RightHandRing3
										{
											OFFSET -5.900024 0.000000 0.000000
											CHANNELS 3 Xrotation Yrotation Zrotation
											JOINT mixamorig:RightHandRing4
											{
												OFFSET -6.518356 0.000000 0.000000
												CHANNELS 3 Xrotation Yrotation Zrotation
												End Site
												{
													OFFSET 1.636398 6.232697 0.982186
												}
											}
										}
									}
								}
								JOINT mixamorig:RightHandPinky1
								{
									OFFSET -20.411011 -0.303314 -8.561701
									CHANNELS 3 Xrotation Yrotation Zrotation
									JOINT mixamorig:RightHandPinky2
									{
										OFFSET -6.907349 0.000000 0.000000
										CHANNELS 3 Xrotation Yrotation Zrotation
										JOINT mixamorig:RightHandPinky3
										{
											OFFSET -4.623840 0.000000 0.000000
											CHANNELS 3 Xrotation Yrotation Zrotation
											JOINT mixamorig:RightHandPinky4
											{
												OFFSET -5.218353 0.000000 0.000000
												CHANNELS 3 Xrotation Yrotation Zrotation
												End Site
												{
													OFFSET 0.602097 5.118835 0.816273
												}
											}
										}
									}
								}
							}
						}
					}
				}
			}
		}
	}
	JOINT mixamorig:LeftUpLeg
	{
		OFFSET 18.168400 -13.561905 -0.039000
		CHANNELS 3 Xrotation Yrotation Zrotation
		JOINT mixamorig:LeftLeg
		{
			OFFSET 0.577358 -80.825211 -3.695000
			CHANNELS 3 Xrotation Yrotation Zrotation
			JOINT mixamorig:LeftFoot
			{
				OFFSET -0.577356 -83.370262 -6.520700
				CHANNELS 3 Xrotation Yrotation Zrotation
				JOINT mixamorig:LeftToeBase
				{
					OFFSET 0.750401 -20.798306 25.135401
					CHANNELS 3 Xrotation Yrotation Zrotation
					JOINT mixamorig:LeftToe_End
					{
						OFFSET -0.000500 0.001200 19.917799
						CHANNELS 3 Xrotation Yrotation Zrotation
						End Site
						{
							OFFSET 0.000000 19.917805 0.000000
						}
					}
				}
			}
		}
	}
	JOINT mixamorig:RightUpLeg
	{
		OFFSET -18.162500 -13.585098 -0.041000
		CHANNELS 3 Xrotation Yrotation Zrotation
		JOINT mixamorig:RightLeg
		{
			OFFSET -0.595024 -80.945297 -3.631900
			CHANNELS 3 Xrotation Yrotation Zrotation
			JOINT mixamorig:RightFoot
			{
				OFFSET 0.595024 -83.218193 -6.561200
				CHANNELS 3 Xrotation Yrotation Zrotation
				JOINT mixamorig:RightToeBase
				{
					OFFSET -0.753601 -20.807106 25.115000
					CHANNELS 3 Xrotation Yrotation Zrotation
					JOINT mixamorig:RightToe_End
					{
						OFFSET 0.000299 0.001700 19.918200
						CHANNELS 3 Xrotation Yrotation Zrotation
						End Site
						{
							OFFSET 0.000000 19.918203 0.000000
						}
					}
				}
			}
		}
	}
}
MOTION
Frames: 4
Frame Time: 0.033333
0.796118 194.189377 -1.374176 -16.903817 -38.978923 -9.388854 7.991544 -0.056111 -0.143727 16.413481 -0.123609 -0.746173 16.413474 -0.194634 -0.720552 0.365151 7.471886 0.854550 -6.982195 21.565595 11.895452 -0.000000 0.000000 0.000002 -0.000000 0.000000 0.000002 -0.000000 0.000000 0.000002 -37.571085 -4.822504 1.545812 -41.628575 -7.015974 -61.684511 -0.000010 -64.995725 -0.000021 -119.359509 1.120120 32.550243 0.405914 5.507039 -52.453151 3.387125 5.308615 -65.057477 0.282016 1.797446 -17.832381 0.000004 0.000001 0.000002 4.709211 9.560380 3.111992 19.473190 -1.474887 7.636916 -4.533819 -9.614056 1.493483 0.000001 -0.000000 -0.000000 -0.212818 3.933715 -36.747128 2.942131 5.078901 -60.144610 0.513676 2.400816 -24.150516 -0.000002 0.000001 -0.000002 -0.074361 5.736812 -61.061420 4.055033 5.569501 -72.094921 0.582660 2.548970 -25.747995 -0.000002 0.000003 -0.000000 -6.565576 4.545132 -72.425222 3.299632 5.267207 -64.107841 0.175511 1.424707 -14.045859 0.000001 0.000001 0.000000 -41.176287 -8.605644 -9.942311 -46.821589 58.248885 100.943209 -0.000014 98.443100 -0.000035 -52.470579 -17.210948 -29.277678 3.413084 -7.186267 51.650253 6.296813 -4.359600 110.634660 0.248722 -1.503071 18.790262 0.000001 0.000000 -0.000001 8.377157 -4.904139 11.021991 21.620202 -18.183895 -18.379213 -0.699271 -49.822368 -32.518845 -0.000001 0.000003 0.000001 -0.920015 1.683570 12.434970 0.748120 -2.533455 32.898296 0.615654 -2.316059 29.767829 0.000002 -0.000000 -0.000001 -3.349013 -2.600437 57.010561 5.440860 -4.590908 99.698140 1.689408 -3.590678 50.382252 -0.000001 0.000000 -0.000001 -3.996424 -3.303935 64.593850 4.059337 -4.618710 82.616623 2.316024 -4.027062 59.794235 -0.000002 0.000000 0.000000 -22.428468 42.939603 28.556312 22.067230 0.654614 -0.661889 4.271037 1.199916 -2.583433 -0.000066 0.000002 -0.000003 -0.000000 -0.000001 0.000000 2.240320 5.288719 -5.424435 31.201182 -0.430933 1.065892 -18.912799 -17.326757 4.270696 -0.020495 0.000003 -0.000002 -0.000000 0.000002 0.000000 
0.341810 193.871536 -0.997047 -16.649616 -38.810631 -9.003595 7.765428 -0.108902 -0.291678 16.326527 -0.125961 -0.771015 16.326066 -0.203333 -0.748287 0.316697 7.471904 0.854550 -6.876197 21.568969 11.874907 -0.000002 -0.000000 0.000001 -0.000002 -0.000000 0.000001 -0.000002 -0.000000 0.000001 -37.551294 -4.800067 1.470500 -41.890807 -7.559378 -61.902735 -0.000089 -64.240586 -0.000078 -119.361995 1.104772 32.352301 0.417490 5.506041 -52.268695 3.385026 5.307630 -65.034575 0.282014 1.797446 -17.832379 -0.000001 0.000000 -0.000000 4.709212 9.560380 3.111989 19.569260 -0.998405 7.645130 -4.537007 -9.725030 1.529324 0.000003 0.000001 -0.000001 -0.235257 3.896436 -36.647544 2.928849 5.071274 -59.994339 0.507360 2.386728 -23.999545 0.000001 -0.000000 0.000002 -0.182087 5.654279 -60.750523 4.057420 5.570292 -72.119271 0.583613 2.550924 -25.769192 -0.000001 0.000001 -0.000003 -6.708022 4.451533 -72.199430 3.301857 5.268292 -64.132157 0.175672 1.425317 -14.052084 0.000000 0.000001 -0.000001 -41.190303 -8.614046 -9.974683 -46.375639 58.067741 100.461236 -0.000419 98.355072 0.000430 -52.742994 -17.247671 -29.185210 3.375665 -7.165063 51.464639 6.295104 -4.360251 110.611929 0.248721 -1.503071 18.790259 0.000001 -0.000000 -0.000000 8.248398 -4.705744 11.004686 21.832286 -17.949638 -18.516590 -0.666876 -49.825308 -32.497354 0.000002 0.000001 0.000001 -0.903774 1.651434 12.329707 0.741372 -2.523063 32.745798 0.609555 -2.305373 29.616615 -0.000002 -0.000000 -0.000001 -3.264156 -2.613303 56.696150 5.442571 -4.590608 99.719314 1.690734 -3.591768 50.403504 -0.000001 -0.000001 -0.000001 -3.869370 -3.331243 64.357355 4.059794 -4.618772 82.622189 2.316465 -4.027342 59.800499 0.000000 -0.000000 -0.000000 -22.960675 42.782628 28.751736 23.067557 0.960239 -0.666501 3.711986 0.667197 -2.630543 -0.000054 0.000008 0.000003 0.000000 0.000001 0.000000 1.987857 5.164048 -5.700750 31.895764 -0.396346 1.278809 -19.535576 -17.334387 4.140542 -0.183871 -0.000015 0.000000 0.000000 0.000000 0.000000 
-0.556400 193.254822 -0.874229 -16.320635 -38.480190 -8.388427 7.645994 -0.302475 -0.456094 16.225027 -0.184471 -0.788521 16.224547 -0.276084 -0.760903 0.257764 7.482497 0.856838 -6.989228 21.578060 11.894290 -0.000000 -0.000001 -0.000001 -0.000000 -0.000001 -0.000001 -0.000000 -0.000001 -0.000001 -37.484314 -4.827434 1.382698 -42.244105 -7.720851 -61.993304 0.000039 -63.785853 0.000039 -119.383647 1.194242 32.372132 0.385351 5.478052 -52.210065 3.390826 5.310315 -65.097256 0.282021 1.797449 -17.832379 0.000001 -0.000001 0.000003 4.709211 9.560381 3.111990 19.598589 -0.831376 7.673889 -4.557679 -9.777342 1.552839 0.000001 0.000000 0.000003 -0.200818 3.941915 -36.633443 2.923428 5.068164 -59.933025 0.504951 2.381290 -23.941422 -0.000000 -0.000001 0.000002 -0.278332 5.597472 -60.710492 4.067500 5.573518 -72.223342 0.588066 2.560123 -25.869271 -0.000001 0.000003 0.000001 -6.738777 4.452091 -72.249345 3.303313 5.268989 -64.148146 0.175999 1.426648 -14.065269 -0.000003 -0.000003 -0.000001 -41.203451 -8.708671 -10.021314 -46.585807 57.793769 100.659114 0.001259 98.270317 -0.001255 -52.851809 -17.630812 -29.170608 3.399248 -7.186396 51.405192 6.299847 -4.358451 110.674405 0.248721 -1.503070 18.790264 0.000001 0.000000 0.000001 8.211937 -4.649600 11.000044 21.913863 -17.844052 -18.554764 -0.690175 -49.819885 -32.521621 0.000001 0.000000 0.000002 -0.919381 1.727143 12.325884 0.738923 -2.519198 32.689757 0.607196 -2.301262 29.558371 0.000001 -0.000001 0.000001 -3.173680 -2.667130 56.649995 5.450612 -4.589241 99.819854 1.697042 -3.596974 50.503979 -0.000000 -0.000000 0.000001 -3.836649 -3.353900 64.405802 4.060814 -4.618908 82.635010 2.317395 -4.027871 59.813790 0.000000 -0.000001 0.000003 -23.812184 42.480874 29.217828 24.483520 1.723573 -0.670655 3.104169 -0.550852 -2.828700 -0.388050 0.000002 -0.000004 -0.000000 0.000000 0.000000 1.375328 4.856770 -6.110105 33.374890 -0.256497 1.736358 -20.699083 -17.298159 3.710063 -0.311291 -0.000007 -0.000002 0.000000 -0.000002 0.000000 
-2.121101 192.450089 -1.180557 -16.053275 -37.762606 -7.584983 7.751491 -0.813823 -0.727843 16.171702 -0.339287 -0.835642 16.171231 -0.465600 -0.794327 0.225162 7.507707 0.862270 -7.246057 21.591621 11.963957 0.000000 0.000001 -0.000001 0.000000 0.000001 -0.000001 0.000000 0.000001 -0.000001 -37.407310 -4.835208 1.216748 -42.720870 -8.016718 -61.678247 0.000025 -63.509742 0.000013 -119.642662 1.236865 32.525016 0.356410 5.452300 -52.149468 3.388475 5.309235 -65.071861 0.282020 1.797447 -17.832376 0.000004 0.000003 0.000001 4.709214 9.560380 3.111991 19.643211 -0.716268 7.661452 -4.535266 -9.793381 1.548761 0.000002 -0.000000 -0.000002 -0.198427 3.944168 -36.619540 2.920007 5.066176 -59.894284 0.503372 2.377713 -23.903196 -0.000003 -0.000002 0.000001 -0.308906 5.570998 -60.589563 4.075187 5.575968 -72.302374 0.591544 2.567271 -25.947004 -0.000002 0.000003 -0.000001 -6.754877 4.435377 -72.195503 3.304622 5.269620 -64.162401 0.176338 1.427959 -14.078502 0.000000 -0.000000 -0.000001 -41.240686 -8.767729 -10.114490 -47.381859 57.452191 101.283536 0.001245 98.133037 -0.001269 -52.950126 -17.991639 -29.251364 3.419433 -7.205218 51.343799 6.297905 -4.359188 110.648928 0.248722 -1.503069 18.790264 0.000000 -0.000000 -0.000000 8.160901 -4.570970 10.993493 21.938144 -17.816496 -18.574261 -0.625759 -49.812594 -32.453002 -0.000003 0.000001 0.000002 -0.919724 1.734484 12.312801 0.737251 -2.516605 32.651726 0.605669 -2.298546 29.520074 0.000001 -0.000001 -0.000002 -3.151507 -2.665598 56.528261 5.456871 -4.588134 99.898026 1.701934 -3.600997 50.582008 -0.000000 -0.000001 -0.000001 -3.823790 -3.352320 64.350422 4.061863 -4.619043 82.648123 2.318340 -4.028417 59.827054 -0.000001 -0.000000 -0.000001 -24.725206 42.129491 29.768666 25.896968 1.906800 -0.673030 2.715261 -1.616452 -2.918793 -0.842304 -0.000000 0.000001 -0.000000 -0.000000 0.000000 0.787170 4.757619 -6.248375 35.326906 -0.795082 2.162650 -22.206810 -17.278613 3.216316 -0.436084 0.000002 -0.000002 -0.000000 -0.000001 -0.000000 
